{
  "accessors": [
    {
      "bufferView": 2,
      "componentType": 5126,
      "count": 65532,
      "max": [
        4.8826198577880859,
        7.4813838005065918,
        6.4811792373657227
      ],
      "min": [
        -3.0424261093139648,
        1.6544899940490723,
        -16.566734313964844
      ],
      "type": "VEC3"
    },
    {
      "bufferView": 2,
      "byteOffset": 786384,
      "componentType": 5126,
      "count": 65532,
      "max": [
        0.99999910593032837,
        0.9999997615814209,
        0.99999988079071045
      ],
      "min": [
        -0.99999964237213135,
        -0.99999988079071045,
        -0.99998897314071655
      ],
      "type": "VEC3"
    },
    {
      "bufferView": 3,
      "componentType": 5126,
      "count": 65532,
      "max": [
        0.99996089935302734,
        0.99999946355819702,
        0.99999982118606567,
        1
      ],
      "min": [
        -0.99999308586120605,
        -0.99938017129898071,
        -0.99999475479125977,
        -1
      ],
      "type": "VEC4"
    },
    {
      "bufferView": 1,
      "componentType": 5126,
      "count": 65532,
      "max": [
        0.99632400274276733,
        0.83091497421264648
      ],
      "min": [
        0,
        0.00034599998616613448
      ],
      "type": "VEC2"
    },
    {
      "bufferView": 0,
      "componentType": 5125,
      "count": 375006,
      "max": [
        65531
      ],
      "min": [
        0
      ],
      "type": "SCALAR"
    },
    {
      "bufferView": 2,
      "byteOffset": 1572768,
      "componentType": 5126,
      "count": 65532,
      "max": [
        4.8781337738037109,
        7.4822211265563965,
        25.075101852416992
      ],
      "min": [
        -3.4279301166534424,
        1.6275390386581421,
        -3.0786240100860596
      ],
      "type": "VEC3"
    },
    {
      "bufferView": 2,
      "byteOffset": 2359152,
      "componentType": 5126,
      "count": 65532,
      "max": [
        1,
        0.9999997615814209,
        0.99999821186065674
      ],
      "min": [
        -1,
        -0.99992138147354126,
        -0.99999898672103882
      ],
      "type": "VEC3"
    },
    {
      "bufferView": 3,
      "byteOffset": 1048512,
      "componentType": 5126,
      "count": 65532,
      "max": [
        0.99996781349182129,
        0.99999886751174927,
        0.99998342990875244,
        1
      ],
      "min": [
        -0.99990534782409668,
        -0.99999910593032837,
        -0.99999940395355225,
        -1
      ],
      "type": "VEC4"
    },
    {
      "bufferView": 1,
      "byteOffset": 524256,
      "componentType": 5126,
      "count": 65532,
      "max": [
        1,
        0.83170902729034424
      ],
      "min": [
        9.9999997473787516e-06,
        9.4000002718530595e-05
      ],
      "type": "VEC2"
    },
    {
      "bufferView": 0,
      "byteOffset": 1500024,
      "componentType": 5125,
      "count": 361488,
      "max": [
        65531
      ],
      "min": [
        0
      ],
      "type": "SCALAR"
    },
    {
      "bufferView": 2,
      "byteOffset": 3145536,
      "componentType": 5126,
      "count": 41031,
      "max": [
        4.298583984375,
        7.5038242340087891,
        26.894834518432617
      ],
      "min": [
        -3.0114550590515137,
        1.6397210359573364,
        -16.39225959777832
      ],
      "type": "VEC3"
    },
    {
      "bufferView": 2,
      "byteOffset": 3637908,
      "componentType": 5126,
      "count": 41031,
      "max": [
        0.99999988079071045,
        1,
        0.99999845027923584
      ],
      "min": [
        -0.99999809265136719,
        -0.99996864795684814,
        -0.99999922513961792
      ],
      "type": "VEC3"
    },
    {
      "bufferView": 3,
      "byteOffset": 2097024,
      "componentType": 5126,
      "count": 41031,
      "max": [
        0.99998342990875244,
        0.99997437000274658,
        0.99999964237213135,
        1
      ],
      "min": [
        -0.99998629093170166,
        -0.99999910593032837,
        -0.9999961256980896,
        -1
      ],
      "type": "VEC4"
    },
    {
      "bufferView": 1,
      "byteOffset": 1048512,
      "componentType": 5126,
      "count": 41031,
      "max": [
        0.99816197156906128,
        0.84173798561096191
      ],
      "min": [
        0.00062200002139434218,
        0.00063600001158192754
      ],
      "type": "VEC2"
    },
    {
      "bufferView": 0,
      "byteOffset": 2945976,
      "componentType": 5125,
      "count": 227520,
      "max": [
        41030
      ],
      "min": [
        0
      ],
      "type": "SCALAR"
    }
  ],
  "asset": {
    "extras": {
      "author": "Benoît Rogez (https://sketchfab.com/shadows44)",
      "license": "CC-BY-NC-4.0 (http://creativecommons.org/licenses/by-nc/4.0/)",
      "source": "https://sketchfab.com/3d-models/galerie-dapollon-musee-du-louvre-732a94771a6f466897f244c59a78c1ec",
      "title": "Galerie d'Apollon - Musée du Louvre"
    },
    "generator": "Sketchfab-4.54.1",
    "version": "2.0"
  },
  "bufferViews": [
    {
      "buffer": 0,
      "byteLength": 3856056,
      "byteOffset": 0,
      "name": "floatBufferViews",
      "target": 34963
    },
    {
      "buffer": 0,
      "byteLength": 1376760,
      "byteOffset": 3856056,
      "byteStride": 8,
      "name": "floatBufferViews",
      "target": 34962
    },
    {
      "buffer": 0,
      "byteLength": 4130280,
      "byteOffset": 5232816,
      "byteStride": 12,
      "name": "floatBufferViews",
      "target": 34962
    },
    {
      "buffer": 0,
      "byteLength": 2753520,
      "byteOffset": 9363096,
      "byteStride": 16,
      "name": "floatBufferViews",
      "target": 34962
    }
  ],
  "buffers": [
    {
      "byteLength": 12116616,
      "uri": "scene.bin"
    }
  ],
  "extensionsUsed": [
    "KHR_materials_unlit"
  ],
  "images": [
    {
      "uri": "textures/apollon_baseColor.jpeg"
    }
  ],
  "materials": [
    {
      "doubleSided": true,
      "emissiveFactor": [
        0,
        0,
        0
      ],
      "extensions": {
        "KHR_materials_unlit": {}
      },
      "name": "apollon",
      "pbrMetallicRoughness": {
        "baseColorFactor": [
          1,
          1,
          1,
          1
        ],
        "baseColorTexture": {
          "index": 0,
          "texCoord": 0
        },
        "metallicFactor": 0,
        "roughnessFactor": 1
      }
    }
  ],
  "meshes": [
    {
      "primitives": [
        {
          "attributes": {
            "NORMAL": 1,
            "POSITION": 0,
            "TANGENT": 2,
            "TEXCOORD_0": 3
          },
          "indices": 4,
          "material": 0,
          "mode": 4
        }
      ]
    },
    {
      "primitives": [
        {
          "attributes": {
            "NORMAL": 6,
            "POSITION": 5,
            "TANGENT": 7,
            "TEXCOORD_0": 8
          },
          "indices": 9,
          "material": 0,
          "mode": 4
        }
      ]
    },
    {
      "primitives": [
        {
          "attributes": {
            "NORMAL": 11,
            "POSITION": 10,
            "TANGENT": 12,
            "TEXCOORD_0": 13
          },
          "indices": 14,
          "material": 0,
          "mode": 4
        }
      ]
    }
  ],
  "nodes": [
    {
      "children": [
        1
      ],
      "name": "RootNode (gltf orientation matrix)",
      "rotation": [
        -0.70710678118654746,
        -0,
        -0,
        0.70710678118654757
      ]
    },
    {
      "children": [
        2
      ],
      "matrix": [
        0,
        1,
        0,
        0,
        0,
        0,
        -1,
        0,
        -1,
        0,
        0,
        0,
        5.891395092010498,
        3.838336706161499,
        9.729731559753418,
        1
      ],
      "name": "RootNode (model correction matrix)"
    },
    {
      "children": [
        3,
        4,
        5
      ],
      "name": "apollon.obj.cleaner.materialmerger.gles"
    },
    {
      "mesh": 0,
      "name": ""
    },
    {
      "mesh": 1,
      "name": ""
    },
    {
      "mesh": 2,
      "name": ""
    }
  ],
  "samplers": [
    {
      "magFilter": 9729,
      "minFilter": 9987,
      "wrapS": 10497,
      "wrapT": 10497
    }
  ],
  "scene": 0,
  "scenes": [
    {
      "name": "OSG_Scene",
      "nodes": [
        0
      ]
    }
  ],
  "textures": [
    {
      "sampler": 0,
      "source": 0
    }
  ]
}

